<?xml version="1.0" encoding="UTF-8" standalone="no"?>
<svg width="16px" height="16px" viewBox="0 0 16 16" version="1.1" xmlns="http://www.w3.org/2000/svg" xmlns:xlink="http://www.w3.org/1999/xlink">
    <!-- Generator: Sketch 3.7.2 (28276) - http://www.bohemiancoding.com/sketch -->
    <title>clear-day</title>
    <desc>Created with Sketch.</desc>
    <defs></defs>
    <g stroke="none" stroke-width="1" fill="none" fill-rule="evenodd">
        <g transform="translate(-245.000000, -167.000000)" fill="#F6A623">
            <g transform="translate(11.000000, 147.000000)">
                <g transform="translate(234.000000, 20.000000)">
                    <g>
                        <path d="M8.8,1.6 L8,3.9472 L7.2,1.6 C7.0496,1.1576 7.2848,0.6784 7.7272,0.5272 C8.1688,0.3768 8.6496,0.6128 8.8,1.0544 C8.8624,1.2384 8.8576,1.4296 8.8,1.6 L8.8,1.6 Z"></path>
                        <path d="M1.6,7.2 L3.9472,8 L1.6,8.8 C1.1576,8.9504 0.6784,8.7152 0.5272,8.2728 C0.3768,7.8312 0.6128,7.3504 1.0544,7.2 C1.2384,7.1376 1.4296,7.1424 1.6,7.2 L1.6,7.2 Z"></path>
                        <path d="M7.2,14.4 L8,12.0528 L8.8,14.4 C8.9504,14.8424 8.7152,15.3216 8.2728,15.4728 C7.8312,15.6232 7.3512,15.388 7.2,14.9456 C7.1376,14.7616 7.1424,14.5704 7.2,14.4 L7.2,14.4 Z"></path>
                        <path d="M14.4,8.7984 L12.0528,7.9984 L14.4,7.1984 C14.8424,7.048 15.3216,7.2832 15.4728,7.7256 C15.6232,8.1672 15.388,8.6472 14.9456,8.7984 C14.7616,8.8608 14.5704,8.856 14.4,8.7984 L14.4,8.7984 Z"></path>
                        <path d="M4.04,2.9088 L5.1336,5.1336 L2.9088,4.04 C2.4896,3.8344 2.3168,3.3272 2.5224,2.9088 C2.7288,2.4904 3.2352,2.3176 3.6536,2.5232 C3.828,2.6088 3.96,2.7472 4.04,2.9088 L4.04,2.9088 Z"></path>
                        <path d="M2.9088,11.9592 L5.1336,10.8656 L4.04,13.0904 C3.8344,13.5088 3.3272,13.6816 2.9088,13.476 C2.4904,13.2704 2.3176,12.7632 2.5232,12.3448 C2.6088,12.1704 2.7472,12.0392 2.9088,11.9592 L2.9088,11.9592 Z"></path>
                        <path d="M11.9592,13.0904 L10.8656,10.8656 L13.0904,11.9592 C13.5088,12.1648 13.6816,12.672 13.476,13.0904 C13.2704,13.5088 12.7632,13.6816 12.3448,13.476 C12.1704,13.3904 12.0392,13.252 11.9592,13.0904 L11.9592,13.0904 Z"></path>
                        <path d="M13.0896,4.0384 L10.864,5.1328 L11.9584,2.9072 C12.164,2.4888 12.6712,2.316 13.0896,2.5216 C13.508,2.7272 13.6808,3.2344 13.4744,3.6536 C13.3896,3.8272 13.2512,3.9584 13.0896,4.0384 L13.0896,4.0384 Z"></path>
                        <path d="M8,11.6 C6.0152,11.6 4.4,9.9848 4.4,8 C4.4,6.0152 6.0152,4.4 8,4.4 C9.9848,4.4 11.6,6.0152 11.6,8 C11.6,9.9848 9.9848,11.6 8,11.6 L8,11.6 Z M8,6 C6.8968,6 6,6.8968 6,8 C6,9.1032 6.8968,10 8,10 C9.1032,10 10,9.1032 10,8 C10,6.8968 9.1032,6 8,6 L8,6 Z"></path>
                    </g>
                </g>
            </g>
        </g>
    </g>
</svg>