<?xml version="1.0" encoding="UTF-8" standalone="no"?>
<svg width="12px" height="16px" viewBox="0 0 12 16" version="1.1" xmlns="http://www.w3.org/2000/svg" xmlns:xlink="http://www.w3.org/1999/xlink">
    <!-- Generator: Sketch 3.7.2 (28276) - http://www.bohemiancoding.com/sketch -->
    <title>clear-night</title>
    <desc>Created with Sketch.</desc>
    <defs></defs>
    <g stroke="none" stroke-width="1" fill="none" fill-rule="evenodd">
        <g transform="translate(-256.000000, -824.000000)" fill="#4A4A4A">
            <g transform="translate(256.000000, 824.000000)">
                <path d="M4.5,15.4285714 C3.639,15.4285714 2.79,15.2732571 1.977,14.9646857 L0.66,14.4658286 L1.55,13.3477714 C2.825,11.7432 3.5,9.79508571 3.5,7.71428571 C3.5,5.63348571 2.825,3.68537143 1.549,2.0808 L0.659,0.962742857 L1.976,0.463885714 C2.79,0.155314286 3.639,0 4.5,0 C8.636,0 12,3.46011429 12,7.71428571 C12,11.9684571 8.636,15.4285714 4.5,15.4285714 L4.5,15.4285714 Z M3.991,13.3467429 C4.16,13.3632 4.33,13.3714286 4.5,13.3714286 C7.532,13.3714286 10,10.8329143 10,7.71428571 C10,4.59565714 7.532,2.05714286 4.5,2.05714286 C4.33,2.05714286 4.16,2.06537143 3.991,2.08182857 C4.982,3.77382857 5.5,5.69314286 5.5,7.71428571 C5.5,9.73542857 4.982,11.6547429 3.991,13.3467429 L3.991,13.3467429 Z"></path>
            </g>
        </g>
    </g>
</svg>