<?xml version="1.0" encoding="UTF-8" standalone="no"?>
<svg width="32px" height="32px" viewBox="0 0 32 32" version="1.1" xmlns="http://www.w3.org/2000/svg" xmlns:xlink="http://www.w3.org/1999/xlink">
<symbol id="clock" viewBox="0 0 32 32">
    <title>Hourly Forecast Icon</title>
    <g stroke="none" stroke-width="1" fill="none" fill-rule="evenodd">
        <g transform="translate(-54.000000, -89.000000)">
            <g transform="translate(70.000000, 105.000000) scale(-1, 1) translate(-70.000000, -105.000000) translate(54.000000, 89.000000)">
                <path d="M20.586,23.414 L14,16.828 L14,8 L18,8 L18,15.172 L23.414,20.586 L20.586,23.414 Z M16,0 C7.164,0 0,7.164 0,16 C0,24.836 7.164,32 16,32 C24.836,32 32,24.836 32,16 C32,7.164 24.836,0 16,0 L16,0 Z M16,29 C8.81966667,29 3,23.1803333 3,16 C3,8.81966667 8.81966667,3 16,3 C23.1803333,3 29,8.81966667 29,16 C29,23.1803333 23.1803333,29 16,29 L16,29 Z" fill="#4A4A4A"></path>
                <polygon fill="#4990E2" points="20.586 23.414 14 16.828 14 8 18 8 18 15.172 23.414 20.586"></polygon>
            </g>
        </g>
    </g>
</symbol>
</svg>