<?xml version="1.0" encoding="UTF-8" standalone="no"?>
<svg width="16px" height="12px" viewBox="0 0 16 12" version="1.1" xmlns="http://www.w3.org/2000/svg" xmlns:xlink="http://www.w3.org/1999/xlink">
    <!-- Generator: Sketch 3.7.2 (28276) - http://www.bohemiancoding.com/sketch -->
    <title>cloudy</title>
    <desc>Created with Sketch.</desc>
    <defs></defs>
    <g stroke="none" stroke-width="1" fill="none" fill-rule="evenodd">
        <g transform="translate(-256.000000, -373.000000)" fill="#4A4A4A">
            <g transform="translate(256.000000, 373.000000)">
                <path d="M12,12 L3.2,12 C1.4352,12 0,10.4622857 0,8.57142857 C0,6.97628571 1.0216,5.63228571 2.4008,5.25085714 C2.4,5.21485714 2.4,5.17885714 2.4,5.14285714 C2.4,2.30657143 4.5528,0 7.2,0 C9.2696,0 11.0592,1.404 11.72,3.44142857 C14.0736,3.23057143 16,5.25257143 16,7.71428571 C16,10.0774286 14.2056,12 12,12 L12,12 Z M3.124,6.852 C2.3176,6.85714286 1.6,7.626 1.6,8.57142857 C1.6,9.51685714 2.3176,10.2857143 3.2,10.2857143 L12,10.2857143 C13.3232,10.2857143 14.4,9.132 14.4,7.71428571 C14.4,6.29657143 13.3232,5.14285714 12,5.14285714 C11.8056,5.14285714 11.6,5.178 11.352,5.25428571 L10.492,5.51742857 L10.3432,4.572 C10.0832,2.916 8.7616,1.71428571 7.2,1.71428571 C5.4352,1.71428571 4,3.252 4,5.14285714 C4,5.376 4.0216,5.61 4.0656,5.838 L4.2608,6.86571429 L3.124,6.852 L3.124,6.852 Z"></path>
            </g>
        </g>
    </g>
</svg>