<?xml version="1.0" encoding="UTF-8" standalone="no"?>
<svg width="33px" height="31px" version="1.1" xmlns="http://www.w3.org/2000/svg" xmlns:xlink="http://www.w3.org/1999/xlink">
<symbol id="daily" viewBox="0 0 33 31">
    <title>Daily</title>
    <g stroke="none" stroke-width="1" fill="none" fill-rule="evenodd">
        <g transform="translate(-145.000000, -89.000000)">
            <g transform="translate(145.000000, 89.000000)">
                <polygon fill="#4990E2" transform="translate(13.707000, 14.707000) scale(-1, 1) translate(-13.707000, -14.707000) " points="15.586 22.414 9 15.828 9 7 13 7 13 14.172 18.414 19.586"></polygon>
                <text font-family="OpenSans-Light, Open Sans" font-size="13" font-weight="300" fill="#4990E2">
                    <tspan x="16" y="29">24</tspan>
                </text>
                <path d="M30.9291985,14.0088502 C30.1788702,6.14801298 23.5574078,0 15.5,0 C6.93958638,0 0,6.93958638 0,15.5 C0,23.8931147 6.67099168,30.7281357 15,30.9920882 L15,27.9901828 C8.32823338,27.7277309 3,22.2361032 3,15.5 C3,8.59644063 8.59644063,3 15.5,3 C22.0264847,3 27.3847415,8.00177805 27.95061,14.3811737 L30.9291985,14.0088502 Z" fill="#4A4A4A"></path>
                <polygon fill="#4A4A4A" transform="translate(29.500000, 15.500000) scale(1, -1) translate(-29.500000, -15.500000) " points="29.5 13 33 18 26 18"></polygon>
            </g>
        </g>
    </g>
</symbol>
</svg>