<?xml version="1.0" encoding="UTF-8" standalone="no"?>
<svg width="16px" height="11px" viewBox="0 0 16 11" version="1.1" xmlns="http://www.w3.org/2000/svg" xmlns:xlink="http://www.w3.org/1999/xlink">
    <!-- Generator: Sketch 3.7.2 (28276) - http://www.bohemiancoding.com/sketch -->
    <title>fog</title>
    <desc>Created with Sketch.</desc>
    <defs></defs>
    <g stroke="none" stroke-width="1" fill="none" fill-rule="evenodd">
        <g transform="translate(-256.000000, -624.000000)" fill="#4A4A4A">
            <g transform="translate(256.000000, 624.000000)">
                <path d="M15.9407407,7.7037037 C15.9798519,7.5122963 16,7.31377778 16,7.11111111 L0,7.11111111 C0,7.31377778 0.0201481481,7.5122963 0.0592592593,7.7037037 L15.9407407,7.7037037 L15.9407407,7.7037037 Z M15.7528889,8.2962963 C15.6604444,8.50785185 15.5437037,8.70637037 15.4068148,8.88888889 L15.4068148,8.88888889 L0.592592593,8.89066667 C0.455111111,8.70755556 0.33837037,8.50844444 0.245925926,8.2962963 L15.7528889,8.2962963 L15.7528889,8.2962963 Z M8.82903704,1.18518519 C8.98251852,1.33511111 9.12414815,1.49748148 9.25274074,1.66933333 C9.74992593,1.36237037 10.336,1.18518519 10.962963,1.18518519 C11.6604444,1.18518519 12.306963,1.40444444 12.8373333,1.77777778 L12.8373333,1.77777778 L2.52148148,1.77777778 C2.67022222,1.56503704 2.83792593,1.36651852 3.02281481,1.18518519 L8.82903704,1.18518519 L8.82903704,1.18518519 Z M8.064,0.592592593 C7.43940741,0.216296296 6.70814815,0 5.92592593,0 C5.1437037,0 4.41244444,0.216296296 3.78785185,0.592592593 L8.06340741,0.592592593 L8.064,0.592592593 Z M13.4773333,2.37037037 C13.6278519,2.5522963 13.7588148,2.75081481 13.8666667,2.96296296 L13.8666667,2.96296296 L1.94962963,2.96296296 C2.01066667,2.75851852 2.08651852,2.56059259 2.17718519,2.37037037 L13.4773333,2.37037037 L13.4773333,2.37037037 Z M14.0995556,3.55555556 C14.1534815,3.74637037 14.1908148,3.94488889 14.2091852,4.14814815 L14.2091852,4.14814815 L1.77777778,4.14814815 C1.77777778,3.94666667 1.792,3.74933333 1.81985185,3.55555556 L14.0995556,3.55555556 L14.0995556,3.55555556 Z M14.8148148,4.73955556 C15.04,4.90844444 15.2397037,5.10874074 15.4085926,5.33333333 L15.4085926,5.33333333 L0.593185185,5.33333333 C0.762074074,5.10874074 0.961777778,4.90962963 1.18577778,4.74074074 L14.8142222,4.73955556 L14.8148148,4.73955556 Z M15.7540741,5.92592593 C15.8358519,6.11377778 15.8992593,6.3122963 15.9407407,6.51851852 L15.9407407,6.51851852 L0.0592592593,6.51851852 C0.101333333,6.3122963 0.164740741,6.11437037 0.247111111,5.92592593 L15.7540741,5.92592593 L15.7540741,5.92592593 Z M14.8136296,9.48148148 C14.3188148,9.85362963 13.7037037,10.0740741 13.037037,10.0740741 L2.96237037,10.0740741 C2.29392593,10.0740741 1.67822222,9.85362963 1.18281481,9.48148148 L14.8136296,9.48148148 L14.8136296,9.48148148 Z"></path>
            </g>
        </g>
    </g>
</svg>