<?xml version="1.0" encoding="UTF-8" standalone="no"?>
<svg width="16px" height="16px" viewBox="0 0 16 16" version="1.1" xmlns="http://www.w3.org/2000/svg" xmlns:xlink="http://www.w3.org/1999/xlink">
    <!-- Generator: Sketch 3.7.2 (28276) - http://www.bohemiancoding.com/sketch -->
    <title>hail</title>
    <desc>Created with Sketch.</desc>
    <defs></defs>
    <g stroke="none" stroke-width="1" fill="none" fill-rule="evenodd">
        <g transform="translate(-256.000000, -669.000000)">
            <g transform="translate(256.000000, 669.000000)">
                <g>
                    <path d="M10.4,14.4 C9.9584,14.4 9.6,14.0424 9.6,13.6 L9.6,8.8 C9.6,8.3576 9.9584,8 10.4,8 C10.8416,8 11.2,8.3576 11.2,8.8 L11.2,13.6 C11.2,14.0424 10.8416,14.4 10.4,14.4 L10.4,14.4 Z" fill="#4A4A4A"></path>
                    <path d="M5.6,14.4 C5.1584,14.4 4.8,14.0424 4.8,13.6 L4.8,8.8 C4.8,8.3576 5.1584,8 5.6,8 C6.0416,8 6.4,8.3576 6.4,8.8 L6.4,13.6 C6.4,14.0424 6.0416,14.4 5.6,14.4 L5.6,14.4 Z" fill="#4A4A4A"></path>
                    <path d="M8,16 C7.5584,16 7.2,15.6424 7.2,15.2 L7.2,10.4 C7.2,9.9576 7.5584,9.6 8,9.6 C8.4416,9.6 8.8,9.9576 8.8,10.4 L8.8,15.2 C8.8,15.6424 8.4416,16 8,16 L8,16 Z" fill="#4A4A4A"></path>
                    <path d="M3.2,11.2 C1.4352,11.2 0,9.7648 0,8 C0,6.5112 1.0216,5.2568 2.4008,4.9008 C2.4,4.8672 2.4,4.8336 2.4,4.8 C2.4,2.1528 4.5528,0 7.2,0 C9.2696,0 11.0592,1.3112 11.72,3.212 C14.0688,3.0168 16,4.9024 16,7.2 C16,8.9928 14.7944,10.5784 13.0672,11.0552 C12.6392,11.172 12.2008,10.9224 12.0832,10.4976 C11.9656,10.072 12.2152,9.6312 12.6416,9.5136 C13.6768,9.2272 14.4,8.276 14.4,7.2 C14.4,5.8768 13.3232,4.8 12,4.8 C11.8064,4.8 11.6008,4.8328 11.3512,4.904 L10.492,5.1488 L10.344,4.2672 C10.0832,2.7216 8.7616,1.6 7.2,1.6 C5.4352,1.6 4,3.0352 4,4.8 C4,5.0176 4.0216,5.236 4.0656,5.4464 L4.264,6.408 L3.1264,6.3952 C2.3176,6.4 1.6,7.1176 1.6,8 C1.6,8.8824 2.3176,9.6 3.2,9.6 C3.6416,9.6 4,9.9576 4,10.4 C4,10.8424 3.6416,11.2 3.2,11.2 L3.2,11.2 Z" fill="#4990E2"></path>
                </g>
            </g>
        </g>
    </g>
</svg>