<?xml version="1.0" encoding="UTF-8" standalone="no"?>
<svg width="21px" height="22px" viewBox="0 0 21 22" version="1.1" xmlns="http://www.w3.org/2000/svg" xmlns:xlink="http://www.w3.org/1999/xlink">
<symbol id="locationIcon" viewBox="0 0 21 22">
<title>Map Icon</title>
<defs></defs>
<g stroke="none" stroke-width="1" fill="#4a4a4a" fill-rule="evenodd">
<g transform="translate(-280.000000, -14.000000)">
<g transform="translate(280.000000, 14.000000)">
<path d="M6,1.55814082e-15 C6.1015,1.55814082e-15 6.1895,0.0374252874 6.264,0.112275862 C6.3385,0.187126437 6.3755,0.276137931 6.375,0.379310345 L6.375,17.8275862 C6.375,17.9858851 6.3085,18.0966437 6.1755,18.1598621 L0.5505,21.1943448 C0.496,21.2262069 0.4375,21.2421379 0.375,21.2421379 C0.2735,21.2421379 0.1855,21.2047126 0.111,21.1298621 C0.0365,21.0550115 -0.0005,20.966 1.2541357e-13,20.8628276 L1.2541357e-13,3.41455172 C1.2541357e-13,3.25625287 0.0665,3.14549425 0.1995,3.08227586 L5.8245,0.0477931034 C5.879,0.0159310345 5.9375,0 6,0 L6,1.55814082e-15 Z M20.625,1.55814082e-15 C20.7265,1.55814082e-15 20.8145,0.0374252874 20.889,0.112275862 C20.9635,0.187126437 21.0005,0.276137931 21,0.379310345 L21,17.8275862 C21,17.9858851 20.9335,18.0966437 20.8005,18.1598621 L15.1755,21.1943448 C15.121,21.2262069 15.0625,21.2421379 15,21.2421379 C14.8985,21.2421379 14.8105,21.2047126 14.736,21.1298621 C14.6615,21.0550115 14.6245,20.966 14.625,20.8628276 L14.625,3.41455172 C14.625,3.25625287 14.6915,3.14549425 14.8245,3.08227586 L20.4495,0.0477931034 C20.504,0.0159310345 20.5625,0 20.625,0 L20.625,1.55814082e-15 Z M7.5,-5.88226774e-15 C7.5625,-5.88226774e-15 7.61725,0.0118850575 7.66425,0.0356551724 L13.66425,3.07013793 C13.80475,3.14903448 13.875,3.26358621 13.875,3.4137931 L13.875,20.862069 C13.875,20.9647356 13.838,21.0537471 13.764,21.1291034 C13.69,21.2044598 13.602,21.2418851 13.5,21.2413793 C13.4375,21.2413793 13.38275,21.2294943 13.33575,21.2057241 L7.33575,18.1712414 C7.19525,18.0923448 7.125,17.9777931 7.125,17.8275862 L7.125,0.379310345 C7.125,0.276643678 7.162,0.187632184 7.236,0.112275862 C7.31,0.0369195402 7.398,-0.000505747126 7.5,-5.86121134e-15 L7.5,-5.88226774e-15 Z"></path>
</g>
</g>
</g>
</symbol>
</svg>
