<?xml version="1.0" encoding="UTF-8" standalone="no"?>
<svg width="16px" height="16px" viewBox="0 0 16 16" version="1.1" xmlns="http://www.w3.org/2000/svg" xmlns:xlink="http://www.w3.org/1999/xlink">
    <!-- Generator: Sketch 3.7.2 (28276) - http://www.bohemiancoding.com/sketch -->
    <title>partly-cloudy-day</title>
    <desc>Created with Sketch.</desc>
    <defs></defs>
    <g stroke="none" stroke-width="1" fill="none" fill-rule="evenodd">
        <g transform="translate(-256.000000, -318.000000)" fill="#F6A623">
            <g transform="translate(256.000000, 318.000000)">
                <g>
                    <path d="M9.81818182,1.45454545 L9.09090909,3.63636364 L8.36363636,1.45454545 C8.22981818,1.05236364 8.44654545,0.618909091 8.848,0.485090909 C9.25018182,0.350545455 9.68436364,0.568 9.81818182,0.969454545 C9.87272727,1.13381818 9.86909091,1.30254545 9.81818182,1.45454545 L9.81818182,1.45454545 Z"></path>
                    <path d="M13.7192727,3.67272727 L11.6618182,4.70181818 L12.6909091,2.64436364 C12.8807273,2.26545455 13.3410909,2.11272727 13.7192727,2.30109091 C14.0981818,2.49090909 14.2509091,2.95127273 14.0625455,3.33018182 C13.9847273,3.48436364 13.8632727,3.60072727 13.7192727,3.67272727 L13.7192727,3.67272727 Z"></path>
                    <path d="M14.9090909,8 L12.7272727,7.27272727 L14.9090909,6.54545455 C15.3112727,6.41090909 15.7447273,6.62836364 15.8792727,7.03054545 C16.0130909,7.432 15.7956364,7.86545455 15.3934545,8 C15.2298182,8.05454545 15.0610909,8.05018182 14.9090909,8 L14.9090909,8 Z"></path>
                    <path d="M5.49090909,2.64436364 L6.52,4.70181818 L4.46254545,3.67272727 C4.08363636,3.48290909 3.93018182,3.02254545 4.11927273,2.64436364 C4.30909091,2.26545455 4.77018182,2.11272727 5.14763636,2.30109091 C5.30254545,2.37890909 5.41890909,2.50036364 5.49090909,2.64436364 L5.49090909,2.64436364 Z"></path>
                    <path d="M12.2007273,8.24872727 C12.3018182,7.94036364 12.3636364,7.61527273 12.3636364,7.27272727 C12.3636364,5.46836364 10.8952727,4 9.09090909,4 C8.11636364,4 7.24581818,4.432 6.64945455,5.11127273 C6.61381818,5.10618182 6.58254545,5.09090909 6.54545455,5.09090909 C5.25381818,5.09090909 4.09527273,5.65818182 3.29527273,6.55345455 C3.12072727,6.49527273 2.952,6.49090909 2.78836364,6.54545455 C2.38618182,6.68 2.16872727,7.11345455 2.30254545,7.51490909 C2.344,7.63636364 2.41745455,7.73236364 2.504,7.81381818 C2.29818182,8.32072727 2.18181818,8.87418182 2.18181818,9.45454545 C2.18181818,9.48509091 2.18181818,9.51563636 2.18327273,9.54618182 C0.928727273,9.86981818 0,11.0101818 0,12.3636364 C0,13.968 1.30545455,15.2727273 2.90909091,15.2727273 L10.9090909,15.2727273 C12.9141818,15.2727273 14.5454545,13.6414545 14.5454545,11.6363636 C14.5454545,10.088 13.568,8.77163636 12.2007273,8.24872727 L12.2007273,8.24872727 Z M9.09090909,5.45454545 C10.0938182,5.45454545 10.9090909,6.26981818 10.9090909,7.27272727 C10.9090909,7.53890909 10.8392727,7.78618182 10.736,8.01381818 C10.4785455,8.02909091 10.2123636,8.06763636 9.92290909,8.15054545 C9.544,7.16654545 8.75636364,6.39418182 7.76509091,6.03781818 C8.09672727,5.68145455 8.56654545,5.45454545 9.09090909,5.45454545 L9.09090909,5.45454545 Z M10.9090909,13.8181818 L2.90909091,13.8181818 C2.10618182,13.8181818 1.45454545,13.1658182 1.45454545,12.3636364 C1.45454545,11.5614545 2.10618182,10.9090909 2.84218182,10.9047273 L3.87636364,10.9163636 L3.696,10.0421818 C3.656,9.85090909 3.63636364,9.65236364 3.63636364,9.45454545 C3.63636364,7.85018182 4.94181818,6.54545455 6.54545455,6.54545455 C6.56290909,6.54545455 6.57818182,6.536 6.59563636,6.53527273 C7.98036364,6.57527273 9.13745455,7.55781818 9.39345455,8.91345455 C9.416,8.97018182 9.40945455,9.00872727 9.42109091,9.04872727 C9.51054545,9.36581818 9.79709091,9.56218182 10.1090909,9.56654545 C10.1861818,9.56581818 10.2523636,9.56872727 10.3192727,9.54981818 C10.5461818,9.48436364 10.7330909,9.45454545 10.9090909,9.45454545 C12.112,9.45454545 13.0909091,10.4334545 13.0909091,11.6363636 C13.0909091,12.8392727 12.112,13.8181818 10.9090909,13.8181818 L10.9090909,13.8181818 Z"></path>
                </g>
            </g>
        </g>
    </g>
</svg>