<?xml version="1.0" encoding="UTF-8" standalone="no"?>
<svg width="16px" height="13px" viewBox="0 0 16 13" version="1.1" xmlns="http://www.w3.org/2000/svg" xmlns:xlink="http://www.w3.org/1999/xlink">
    <!-- Generator: Sketch 3.7.2 (28276) - http://www.bohemiancoding.com/sketch -->
    <title>partly-cloudy-night</title>
    <desc>Created with Sketch.</desc>
    <defs></defs>
    <g stroke="none" stroke-width="1" fill="none" fill-rule="evenodd">
        <g transform="translate(-237.000000, -333.000000)" fill="#4A4A4A">
            <g transform="translate(237.000000, 333.000000)">
                <g>
                    <path d="M13.1878788,3.49090909 C13.1878788,1.56625455 11.6216242,0 9.6969697,0 C8.65745455,0 7.72887273,0.4608 7.09275152,1.18535758 C7.05473939,1.17992727 7.02138182,1.16363636 6.98181818,1.16363636 C5.60407273,1.16363636 4.26666667,2.13333333 3.51495758,2.72368485 C3.2,3.2 2.57861818,3.98118788 2.67093333,4.06807273 C2.45139394,4.60877576 2.32727273,5.19912727 2.32727273,5.81818182 C2.32727273,5.85076364 2.32727273,5.88334545 2.32882424,5.91592727 C0.990642424,6.26113939 0,7.47752727 0,8.92121212 C0,10.6325333 1.39248485,12.0242424 3.1030303,12.0242424 L11.6363636,12.0242424 C13.7751273,12.0242424 15.5151515,10.2842182 15.5151515,8.14545455 C15.5151515,6.49386667 14.4725333,5.08974545 13.0141091,4.53197576 C13.1219394,4.20305455 13.1878788,3.85629091 13.1878788,3.49090909 Z M9.6969697,1.55151515 C10.7667394,1.55151515 11.6363636,2.42113939 11.6363636,3.49090909 C11.6363636,3.77483636 11.5618909,4.03859394 11.4517333,4.28140606 C11.1771152,4.29769697 10.8931879,4.33881212 10.5844364,4.42724848 C10.1802667,3.37764848 9.34012121,2.55379394 8.28276364,2.17367273 C8.63650909,1.79355152 9.13764848,1.55151515 9.6969697,1.55151515 L9.6969697,1.55151515 Z M3.1030303,10.4727273 C2.24659394,10.4727273 1.55151515,9.77687273 1.55151515,8.92121212 C1.55151515,8.06555152 2.24659394,7.36969697 3.03166061,7.36504242 L4.13478788,7.37745455 L3.9424,6.44499394 C3.89973333,6.2409697 3.87878788,6.02918788 3.87878788,5.81818182 C3.87878788,4.10686061 5.27127273,2.71515152 6.98181818,2.71515152 C7.00043636,2.71515152 7.01672727,2.70506667 7.03534545,2.70429091 C8.51238788,2.74695758 9.74661818,3.79500606 10.0196848,5.24101818 C10.0437333,5.30152727 10.0367515,5.34264242 10.0491636,5.38530909 C10.1445818,5.72353939 10.4502303,5.93299394 10.7830303,5.93764848 C10.8652606,5.93687273 10.9358545,5.93997576 11.0072242,5.91980606 C11.2492606,5.84998788 11.4486303,5.81818182 11.6363636,5.81818182 C12.9194667,5.81818182 13.9636364,6.86235152 13.9636364,8.14545455 C13.9636364,9.42855758 12.9194667,10.4727273 11.6363636,10.4727273 L3.1030303,10.4727273 Z"></path>
                </g>
            </g>
        </g>
    </g>
</svg>