<?xml version="1.0" encoding="UTF-8" standalone="no"?>
<svg width="16px" height="14px" viewBox="0 0 16 14" version="1.1" xmlns="http://www.w3.org/2000/svg" xmlns:xlink="http://www.w3.org/1999/xlink">
    <!-- Generator: Sketch 3.7.2 (28276) - http://www.bohemiancoding.com/sketch -->
    <title>rain</title>
    <desc>Created with Sketch.</desc>
    <defs></defs>
    <g stroke="none" stroke-width="1" fill="none" fill-rule="evenodd">
        <g transform="translate(-256.000000, -469.000000)" fill="#4990E2">
            <g transform="translate(256.000000, 469.000000)">
                <g>
                    <path d="M12,11.2 C11.5584,11.2 11.2,10.8424 11.2,10.4 C11.2,9.9576 11.5584,9.6 12,9.6 C13.3232,9.6 14.4,8.5232 14.4,7.2 C14.4,5.8768 13.3232,4.8 12,4.8 C11.8056,4.8 11.6,4.8328 11.352,4.904 L10.492,5.1496 L10.344,4.2672 C10.0832,2.7216 8.7616,1.6 7.2,1.6 C5.4352,1.6 4,3.0352 4,4.8 C4,5.0176 4.0216,5.236 4.0656,5.4488 L4.2608,6.408 L3.1248,6.3952 C2.3176,6.4 1.6,7.1176 1.6,8 C1.6,8.8824 2.3176,9.6 3.2,9.6 C3.6416,9.6 4,9.9576 4,10.4 C4,10.8424 3.6416,11.2 3.2,11.2 C1.4352,11.2 0,9.7648 0,8 C0,6.5112 1.0216,5.2568 2.4008,4.9008 C2.4,4.8672 2.4,4.8336 2.4,4.8 C2.4,2.1528 4.5528,0 7.2,0 C9.2696,0 11.0592,1.3104 11.72,3.212 C14.0712,3.0168 16,4.9024 16,7.2 C16,9.4056 14.2056,11.2 12,11.2 L12,11.2 Z"></path>
                    <path d="M6.8,11.2 L7.6,8.8 L8.4,11.2 C8.5472,11.6424 8.3088,12.1192 7.8664,12.2664 C7.4248,12.4144 6.9472,12.1752 6.8,11.7336 C6.74,11.5528 6.744,11.3672 6.8,11.2 L6.8,11.2 Z"></path>
                    <path d="M9.2,12.8 L10,10.4 L10.8,12.8 C10.9472,13.2424 10.7088,13.7192 10.2664,13.8664 C9.8248,14.0144 9.3472,13.7752 9.2,13.3336 C9.14,13.1528 9.144,12.9672 9.2,12.8 L9.2,12.8 Z"></path>
                    <path d="M4.4,12.8 L5.2,10.4 L6,12.8 C6.1472,13.2424 5.9088,13.7192 5.4664,13.8664 C5.0248,14.0144 4.5472,13.7752 4.4,13.3336 C4.34,13.1528 4.344,12.9672 4.4,12.8 L4.4,12.8 Z"></path>
                </g>
            </g>
        </g>
    </g>
</svg>