<?xml version="1.0" encoding="UTF-8" standalone="no"?>
<svg width="14px" height="16px" viewBox="0 0 14 16" version="1.1" xmlns="http://www.w3.org/2000/svg" xmlns:xlink="http://www.w3.org/1999/xlink">
    <!-- Generator: Sketch 3.7.2 (28276) - http://www.bohemiancoding.com/sketch -->
    <title>snow</title>
    <desc>Created with Sketch.</desc>
    <defs></defs>
    <g stroke="none" stroke-width="1" fill="none" fill-rule="evenodd">
        <g transform="translate(-256.000000, -515.000000)" fill="#4A4A4A">
            <g transform="translate(256.000000, 515.000000)">
                <path d="M13.037037,10.3774815 L11.0957037,9.98004938 L12.2674568,9.66716049 C12.6885926,9.55417284 12.9390617,9.12197531 12.8260741,8.69925926 C12.7138765,8.27812346 12.281679,8.02765432 11.8581728,8.14064198 L10.6666667,8.45906173 C10.6959012,8.27654321 10.7227654,8.09244444 10.7227654,7.90123457 C10.7227654,7.71002469 10.6959012,7.5251358 10.6666667,7.34261728 L11.8597531,7.66182716 C11.9284938,7.68 11.9972346,7.68869136 12.0651852,7.68869136 C12.4136296,7.68869136 12.7336296,7.45560494 12.8276543,7.10320988 C12.940642,6.68207407 12.6901728,6.2482963 12.269037,6.13530864 L11.097284,5.82162963 L13.037037,5.42498765 C13.2077037,5.39022222 13.3688889,5.3017284 13.4929383,5.16187654 C13.7979259,4.81738272 13.7671111,4.29116049 13.4226173,3.98617284 C13.0781235,3.68118519 12.5519012,3.712 12.2469136,4.05649383 L10.9329383,5.53718519 L11.2474074,4.36859259 C11.3611852,3.94745679 11.110716,3.51367901 10.6895802,3.39990123 C10.2700247,3.2877037 9.83466667,3.53659259 9.72088889,3.9577284 L9.39930864,5.15634568 C9.11012346,4.92009877 8.79012346,4.72651852 8.43614815,4.58982716 L9.3068642,3.71911111 C9.61580247,3.41017284 9.61580247,2.91081481 9.3068642,2.60187654 C8.99792593,2.29293827 8.4985679,2.29293827 8.18962963,2.60187654 L7.33155556,3.45995062 L7.95812346,1.58024691 C8.01264198,1.41511111 8.01738272,1.23180247 7.95812346,1.05323457 C7.81274074,0.61708642 7.34103704,0.380839506 6.90488889,0.527012346 C6.46874074,0.673185185 6.23328395,1.14330864 6.37787654,1.58024691 L7.00444444,3.45995062 L6.14637037,2.60187654 C5.8374321,2.29293827 5.33807407,2.29293827 5.0291358,2.60187654 C4.72019753,2.91081481 4.72019753,3.41017284 5.0291358,3.71911111 L5.89985185,4.58982716 C5.54666667,4.72651852 5.22587654,4.92088889 4.93669136,5.15634568 L4.61669136,3.95930864 C4.5037037,3.53738272 4.06597531,3.28612346 3.64958025,3.39990123 C3.22765432,3.51288889 2.97718519,3.94508642 3.09017284,4.36701235 L3.40306173,5.54034568 L2.08987654,4.05728395 C1.97451852,3.9277037 1.81728395,3.83209877 1.63318519,3.79417284 C1.18281481,3.7017284 0.742716049,3.9917037 0.650271605,4.44207407 C0.55782716,4.89244444 0.848592593,5.33333333 1.29975309,5.42577778 L3.23871605,5.82320988 L2.06933333,6.13609877 C1.64819753,6.24908642 1.3977284,6.68207407 1.51071605,7.104 C1.60474074,7.45718519 1.92395062,7.68948148 2.27318519,7.68948148 C2.3411358,7.68948148 2.40987654,7.68079012 2.47861728,7.66261728 L3.67012346,7.34340741 C3.63930864,7.52592593 3.61244444,7.71081481 3.61244444,7.90123457 C3.61244444,8.09165432 3.63930864,8.27654321 3.66854321,8.45985185 L2.47703704,8.14064198 C2.05669136,8.02844444 1.62291358,8.27733333 1.5091358,8.69925926 C1.39535802,9.12039506 1.64661728,9.55417284 2.06775309,9.66716049 L3.23950617,9.98083951 L1.29975309,10.3774815 C1.12908642,10.4122469 0.967901235,10.5007407 0.843851852,10.6413827 C0.538074074,10.9858765 0.569679012,11.5120988 0.91417284,11.8162963 C1.25866667,12.1220741 1.78567901,12.0904691 2.08987654,11.7459753 L3.4054321,10.2621235 L3.09096296,11.4346667 C2.97718519,11.8558025 3.22765432,12.2895802 3.64958025,12.4025679 C3.71832099,12.4207407 3.78706173,12.4294321 3.85501235,12.4294321 C4.20345679,12.4294321 4.52266667,12.1971358 4.61748148,11.8439506 L4.9382716,10.6469136 C5.22745679,10.8823704 5.54745679,11.0767407 5.90222222,11.212642 L5.02992593,12.083358 C4.72098765,12.3915062 4.72098765,12.8916543 5.02992593,13.2005926 C5.3388642,13.5095309 5.83822222,13.5095309 6.14716049,13.2005926 L6.70498765,12.6419753 L6.90409877,12.6419753 L6.37787654,14.2214321 C6.32335802,14.3865679 6.31861728,14.5698765 6.37787654,14.7484444 C6.52325926,15.1845926 6.99496296,15.4208395 7.43111111,15.2746667 C7.86804938,15.129284 8.10350617,14.6583704 7.95812346,14.2214321 L7.43190123,12.6419753 L7.63101235,12.6419753 L8.18962963,13.2005926 C8.34449383,13.3546667 8.54597531,13.4320988 8.74824691,13.4320988 C8.95051852,13.4320988 9.15279012,13.3546667 9.3068642,13.2005926 C9.61580247,12.8924444 9.61580247,12.3922963 9.3068642,12.083358 L8.43614815,11.2118519 C8.79012346,11.0759506 9.11091358,10.8815802 9.40009877,10.6453333 L9.72088889,11.8439506 C9.8157037,12.1971358 10.1341235,12.4294321 10.483358,12.4294321 C10.5513086,12.4294321 10.6200494,12.4207407 10.6887901,12.4025679 C11.1099259,12.2895802 11.3611852,11.8565926 11.2474074,11.4346667 L10.9337284,10.265284 L12.2469136,11.7459753 C12.3622716,11.8763457 12.5195062,11.9711605 12.7028148,12.0090864 C13.1531852,12.1015309 13.5940741,11.8107654 13.6857284,11.3603951 C13.7781728,10.9100247 13.4874074,10.4699259 13.037037,10.3774815 L13.037037,10.3774815 Z M7.168,9.87654321 C6.07841975,9.87654321 5.19269136,8.99081481 5.19269136,7.90123457 C5.19269136,6.81165432 6.07841975,5.92592593 7.168,5.92592593 C8.25758025,5.92592593 9.14330864,6.81165432 9.14330864,7.90123457 C9.14330864,8.99081481 8.25758025,9.87654321 7.168,9.87654321 L7.168,9.87654321 Z"></path>
            </g>
        </g>
    </g>
</svg>