<?xml version="1.0" encoding="UTF-8" standalone="no"?>
<svg width="16px" height="16px" viewBox="0 0 16 16" version="1.1" xmlns="http://www.w3.org/2000/svg" xmlns:xlink="http://www.w3.org/1999/xlink">
    <!-- Generator: Sketch 3.7.2 (28276) - http://www.bohemiancoding.com/sketch -->
    <title>thunderstorm</title>
    <desc>Created with Sketch.</desc>
    <defs></defs>
    <g stroke="none" stroke-width="1" fill="none" fill-rule="evenodd">
        <g transform="translate(-256.000000, -724.000000)">
            <g transform="translate(256.000000, 724.000000)">
                <g>
                    <path d="M12,11.2 C11.5576,11.2 11.2,10.8424 11.2,10.4 C11.2,9.9576 11.5576,9.6 12,9.6 C13.3232,9.6 14.4,8.5232 14.4,7.2 C14.4,5.8768 13.3232,4.8 12,4.8 C11.8096,4.8 11.6032,4.8336 11.3496,4.9048 L10.4928,5.1456 L10.344,4.2672 C10.0832,2.7216 8.7608,1.6 7.2,1.6 C5.436,1.6 4,3.0352 4,4.8 C4,5.0192 4.0216,5.236 4.0656,5.4448 L4.2736,6.4368 L3.1248,6.3952 C2.3168,6.4 1.6,7.1176 1.6,8 C1.6,8.8824 2.3168,9.6 3.2,9.6 C3.6424,9.6 4,9.9576 4,10.4 C4,10.8424 3.6424,11.2 3.2,11.2 C1.436,11.2 0,9.7648 0,8 C0,6.5112 1.0216,5.2568 2.4016,4.9008 C2.4,4.8672 2.4,4.8336 2.4,4.8 C2.4,2.1528 4.5528,0 7.2,0 C9.2696,0 11.0592,1.3104 11.7192,3.212 C14.0592,3.0192 16,4.9016 16,7.2 C16,9.4056 14.2056,11.2 12,11.2 L12,11.2 Z" fill="#4A4A4A"></path>
                    <polygon fill="#F6A623" points="8.5112 8 4.9112 11.2408 7.3112 12.4 6.1112 15.2 9.7112 11.96 7.3112 10.8"></polygon>
                </g>
            </g>
        </g>
    </g>
</svg>