<?xml version="1.0" encoding="UTF-8" standalone="no"?>
<svg width="14px" height="16px" viewBox="0 0 14 16" version="1.1" xmlns="http://www.w3.org/2000/svg" xmlns:xlink="http://www.w3.org/1999/xlink">
    <!-- Generator: Sketch 3.7.2 (28276) - http://www.bohemiancoding.com/sketch -->
    <title>tornado</title>
    <desc>Created with Sketch.</desc>
    <defs></defs>
    <g stroke="none" stroke-width="1" fill="none" fill-rule="evenodd">
        <g transform="translate(-256.000000, -774.000000)" fill="#4A4A4A">
            <g transform="translate(256.000000, 774.000000)">
                <path d="M0.757520468,1.54548148 C1.27750487,0.692148148 3.55006628,0 6.99483821,0 C10.4396101,0 12.6677583,0.821894737 13.2321559,1.54548148 C14.0116335,2.54502924 12.7930136,4.90641715 9.07377778,7.21191423 C5.90297076,9.17757505 3.56503704,11.0888421 5.43538402,11.8478596 C9.88918519,13.6553294 7.51432359,15.9688109 7.51432359,15.9688109 C7.51432359,15.9688109 7.51432359,14.4233294 5.9548694,13.9083353 C3.31901754,13.0375361 2.31647563,12.3628538 1.27700585,11.3328655 C0.49054191,10.5533879 -0.355805068,8.09369201 2.31647563,5.66643275 C3.64637817,4.45879142 -0.240031189,3.18278363 0.757021442,1.54548148 L0.757021442,1.54548148 L0.757520468,1.54548148 Z M12.4756335,2.01207018 C12.4756335,1.18518519 10.0179337,0.514994152 6.98635478,0.514994152 C3.95477583,0.514994152 1.49707602,1.18518519 1.49707602,2.01207018 C1.49707602,2.83895517 3.95477583,3.5091462 6.98635478,3.5091462 C10.0179337,3.5091462 12.4756335,2.83895517 12.4756335,2.01207018 L12.4756335,2.01207018 L12.4756335,2.01207018 Z"></path>
            </g>
        </g>
    </g>
</svg>