<?xml version="1.0" encoding="UTF-8" standalone="no"?>
<svg width="16px" height="12px" viewBox="0 0 16 12" version="1.1" xmlns="http://www.w3.org/2000/svg" xmlns:xlink="http://www.w3.org/1999/xlink">
    <!-- Generator: Sketch 3.7.2 (28276) - http://www.bohemiancoding.com/sketch -->
    <title>wind</title>
    <desc>Created with Sketch.</desc>
    <defs></defs>
    <g stroke="none" stroke-width="1" fill="none" fill-rule="evenodd">
        <g transform="translate(-256.000000, -425.000000)" fill="#4A4A4A">
            <g transform="translate(256.000000, 425.000000)">
                <path d="M12.6315789,0 C12.1658947,0 11.7894737,0.376421053 11.7894737,0.842105263 C11.7894737,1.30778947 12.1658947,1.68421053 12.6315789,1.68421053 C13.0964211,1.68421053 13.4736842,2.06147368 13.4736842,2.52631579 C13.4736842,2.99115789 13.0964211,3.36842105 12.6315789,3.36842105 L3.36842105,3.36842105 C2.90273684,3.36842105 2.52631579,3.74484211 2.52631579,4.21052632 C2.52631579,4.67621053 2.90273684,5.05263158 3.36842105,5.05263158 L8.42105263,5.05263158 C8.88589474,5.05263158 9.26315789,5.42989474 9.26315789,5.89473684 C9.26315789,6.35957895 8.88589474,6.73684211 8.42105263,6.73684211 L3.03157895,6.73684211 C1.63873684,6.73684211 0.505263158,7.87031579 0.505263158,9.26315789 C0.505263158,10.656 1.63873684,11.7894737 3.03157895,11.7894737 C3.49726316,11.7894737 3.87368421,11.4130526 3.87368421,10.9473684 C3.87368421,10.4816842 3.49726316,10.1052632 3.03157895,10.1052632 C2.56673684,10.1052632 2.18947368,9.728 2.18947368,9.26315789 C2.18947368,8.79831579 2.56673684,8.42105263 3.03157895,8.42105263 L8.42105263,8.42105263 C9.81389474,8.42105263 10.9473684,7.28757895 10.9473684,5.89473684 C10.9473684,5.59747368 10.8867368,5.31705263 10.7915789,5.05263158 L12.6315789,5.05263158 C14.0244211,5.05263158 15.1578947,3.91915789 15.1578947,2.52631579 C15.1578947,1.13347368 14.0244211,0 12.6315789,0 L12.6315789,0 Z"></path>
            </g>
        </g>
    </g>
</svg>